{"accessors" : [{"bufferView" : 0, "byteOffset" : 0, "componentType" : 5123, "count" : 2196, "type" : "SCALAR", "max" : [2015], "min" : [0]}, {"bufferView" : 1, "byteOffset" : 0, "componentType" : 5126, "count" : 2016, "type" : "VEC3", "max" : [94.86833190917969, 94.86833190917969, 70], "min" : [-94.86833190917969, -94.86833190917969, 0], "name" : "POSITION"}, {"bufferView" : 1, "byteOffset" : 12, "componentType" : 5126, "count" : 2016, "type" : "VEC3", "max" : [0.9998586773872375, 0.9998586773872375, 1.0000044107437134], "min" : [-0.9998586773872375, -0.9998586773872375, -1.0000044107437134], "name" : "NORMAL"}], "asset" : {"generator" : "Aspose.3D 21.11", "version" : "2.0"}, "buffers" : [{"uri" : "data:application/octet-stream;base64,", "byteLength" : 57104}], "bufferViews" : [{"buffer" : 0, "byteOffset" : 0, "byteLength" : 4392, "target" : 34963}, {"buffer" : 0, "byteOffset" : 4396, "byteLength" : 52704, "byteStride" : 24, "target" : 34962}], "meshes" : [{"primitives" : [{"attributes" : {"POSITION" : 1, "NORMAL" : 2}, "indices" : 0, "mode" : 4}], "name" : ""}], "nodes" : [{"mesh" : 0, "name" : ""}], "scene" : 0, "scenes" : [{"nodes" : [0]}]}